#!OML:ASF F:\VICON\USERDATA\INSTALL\rory3\rory3.ASF
:FULLY-SPECIFIED
:DEGREES
522
root 0.0623445 11.7184 -0.57525 31.4957 -3.6946 -2.92665
lowerback 35.5888 -0.429142 3.229
upperback -0.124738 0.965209 1.01407
thorax -18.4982 0.155073 -1.06121
lowerneck -23.4054 -1.68439 -3.61031
upperneck 4.14706 -1.27197 0.577956
head 4.9368 -0.658894 0.619259
rclavicle -1.0138e-014 -1.56543e-014
rhumerus -8.62892 21.265 -80.0084
rradius 54.2581
rwrist 14.0067
rhand -28.7085 -52.1665
rfingers 7.12502
rthumb -2.07016 -82.1362
lclavicle -1.0138e-014 -1.56543e-014
lhumerus -3.75931 -27.8354 76.0833
lradius 49.067
lwrist 8.00252
lhand -34.7988 -34.743
lfingers 7.12502
lthumb -7.95063 -4.91257
rfemur -104.639 2.76153 23.6664
rtibia 108.409
rfoot -27.4561 -20.5915
rtoes -9.30667
lfemur -104.329 5.33718 -17.6829
ltibia 107.63
lfoot -30.6739 13.1714
ltoes -10.8558
523
root 0.0595411 11.5289 -0.600451 31.5435 -3.68118 -2.98607
lowerback 36.6289 -0.451394 3.12127
upperback -0.0331604 0.941258 1.06306
thorax -18.8254 0.15097 -0.936967
lowerneck -23.3671 -1.63986 -3.64767
upperneck 3.32862 -1.22448 0.730054
head 4.66983 -0.617748 0.680993
rclavicle -5.81445e-015 2.33572e-015
rhumerus -7.64324 21.7776 -79.3464
rradius 54.036
rwrist 15.631
rhand -28.6942 -53.4458
rfingers 7.12502
rthumb -2.05637 -83.4157
lclavicle -5.81445e-015 2.33572e-015
lhumerus -3.04174 -28.1451 75.2902
lradius 49.0074
lwrist 6.968
lhand -35.2518 -35.1569
lfingers 7.12502
lthumb -8.38774 -5.34348
rfemur -106.187 2.66144 23.9611
rtibia 110.134
rfoot -27.7457 -20.4706
rtoes -9.42381
lfemur -105.979 5.81075 -18.0557
ltibia 109.329
lfoot -30.8599 12.9668
ltoes -11.3856
524
root 0.0605513 11.3339 -0.613236 31.5375 -3.74575 -2.88543
lowerback 37.4353 -0.456426 2.97425
upperback 0.178292 0.886975 1.01635
thorax -18.8944 0.138704 -0.883444
lowerneck -23.4052 -1.63362 -3.54724
upperneck 2.49955 -1.25402 0.792172
head 4.41164 -0.619704 0.683781
rclavicle -5.66536e-015 -5.31749e-015
rhumerus -6.62345 22.0906 -78.6568
rradius 53.9542
rwrist 17.115
rhand -28.1392 -55.2479
rfingers 7.12502
rthumb -1.52037 -85.2222
lclavicle -5.66536e-015 -5.31749e-015
lhumerus -2.06931 -28.5257 74.4077
lradius 48.732
lwrist 5.44832
lhand -36.1794 -35.5538
lfingers 7.12502
lthumb -9.28294 -5.7782
rfemur -107.733 2.42499 24.125
rtibia 111.969
rfoot -28.4274 -20.0745
rtoes -8.68675
lfemur -107.568 6.23551 -18.6183
ltibia 111.075
lfoot -31.2259 12.5615
ltoes -11.5454
525
root 0.0604061 11.1404 -0.620929 31.4603 -3.91206 -2.59662
lowerback 38.2471 -0.376209 2.58311
upperback 0.394761 0.829574 0.957951
thorax -18.9563 0.146439 -0.710395
lowerneck -23.6272 -1.69003 -3.38789
upperneck 1.84607 -1.3617 0.702207
head 4.23587 -0.672652 0.619856
rclavicle 8.44835e-016 1.21756e-014
rhumerus -5.80561 22.248 -77.9737
rradius 54.0977
rwrist 18.3675
rhand -28.5674 -56.3256
rfingers 7.12502
rthumb -1.9339 -86.2966
lclavicle 8.44835e-016 1.21756e-014
lhumerus -1.07491 -28.9419 73.5561
lradius 48.4689
lwrist 3.88874
lhand -37.4341 -35.6168
lfingers 7.12502
lthumb -10.4934 -5.89871
rfemur -109.24 2.13199 24.0892
rtibia 113.81
rfoot -28.778 -19.8798
rtoes -8.6388
lfemur -108.979 6.62749 -19.3687
ltibia 112.744
lfoot -31.5962 12.1824
ltoes -11.4778
